# xmcd
#
# Track frame offsets: 
#        150
#        19172
#        36155
#        69060
#        103022
#        136657
#
# Disc length: 2243 seconds
#
# Revision: 5
# Processed by: cddbd v1.5.2PL0 Copyright (c) Steve Scherf et al.
# Submitted via: ExactAudioCopy v1.3
#
DISCID=4208c106
DTITLE=Mrs Wood (ft Eve Gallagher) - Heartbreak (Single)
DYEAR=1996
DGENRE=Techno
TTITLE0=Heartbreak - Radio Mix
TTITLE1=Heartbreak - Working Hard Radio Edit
TTITLE2=Heartbreak - Vocal Mix
TTITLE3=Heartbreak - Working Hard Mix
TTITLE4=Heartbreak - Jazzy Mix
TTITLE5=Heartbreak - Whitewood Mix
EXTD=
EXTT0=
EXTT1=
EXTT2=
EXTT3=
EXTT4=
EXTT5=
PLAYORDER=
